<svg xmlns="http://www.w3.org/2000/svg" xmlns:xlink="http://www.w3.org/1999/xlink" width="1920" zoomAndPan="magnify" viewBox="0 0 1440 449.999984" height="600" preserveAspectRatio="xMidYMid meet" version="1.0"><defs><clipPath id="f0620511e2"><path d="M 0 286.277344 L 1440 286.277344 L 1440 450 L 0 450 Z M 0 286.277344 " clip-rule="nonzero"/></clipPath><clipPath id="591e0f7ce4"><path d="M 0 260.636719 L 111.304688 260.636719 L 111.304688 395.636719 L 0 395.636719 Z M 0 260.636719 " clip-rule="nonzero"/></clipPath><clipPath id="7340eaea81"><path d="M 0 260.636719 C -61.433594 260.636719 -111.234375 290.859375 -111.234375 328.136719 C -111.234375 365.417969 -61.433594 395.636719 0 395.636719 C 61.433594 395.636719 111.234375 365.417969 111.234375 328.136719 C 111.234375 290.859375 61.433594 260.636719 0 260.636719 Z M 0 260.636719 " clip-rule="nonzero"/></clipPath><clipPath id="8ad116eb74"><path d="M 179.898438 260.636719 L 402.4375 260.636719 L 402.4375 395.636719 L 179.898438 395.636719 Z M 179.898438 260.636719 " clip-rule="nonzero"/></clipPath><clipPath id="b278881730"><path d="M 291.132812 260.636719 C 229.699219 260.636719 179.898438 290.859375 179.898438 328.136719 C 179.898438 365.417969 229.699219 395.636719 291.132812 395.636719 C 352.566406 395.636719 402.367188 365.417969 402.367188 328.136719 C 402.367188 290.859375 352.566406 260.636719 291.132812 260.636719 Z M 291.132812 260.636719 " clip-rule="nonzero"/></clipPath><clipPath id="22eebc6d55"><path d="M 471.367188 260.636719 L 693.90625 260.636719 L 693.90625 395.636719 L 471.367188 395.636719 Z M 471.367188 260.636719 " clip-rule="nonzero"/></clipPath><clipPath id="d9e161ed68"><path d="M 582.605469 260.636719 C 521.171875 260.636719 471.367188 290.859375 471.367188 328.136719 C 471.367188 365.417969 521.171875 395.636719 582.605469 395.636719 C 644.039062 395.636719 693.839844 365.417969 693.839844 328.136719 C 693.839844 290.859375 644.039062 260.636719 582.605469 260.636719 Z M 582.605469 260.636719 " clip-rule="nonzero"/></clipPath><clipPath id="9e88599e65"><path d="M 752.058594 260.636719 L 974.597656 260.636719 L 974.597656 395.636719 L 752.058594 395.636719 Z M 752.058594 260.636719 " clip-rule="nonzero"/></clipPath><clipPath id="334071633e"><path d="M 863.292969 260.636719 C 801.859375 260.636719 752.058594 290.859375 752.058594 328.136719 C 752.058594 365.417969 801.859375 395.636719 863.292969 395.636719 C 924.726562 395.636719 974.527344 365.417969 974.527344 328.136719 C 974.527344 290.859375 924.726562 260.636719 863.292969 260.636719 Z M 863.292969 260.636719 " clip-rule="nonzero"/></clipPath><clipPath id="ad56bb5232"><path d="M 1033.027344 260.636719 L 1255.566406 260.636719 L 1255.566406 395.636719 L 1033.027344 395.636719 Z M 1033.027344 260.636719 " clip-rule="nonzero"/></clipPath><clipPath id="3330f22355"><path d="M 1144.261719 260.636719 C 1082.828125 260.636719 1033.027344 290.859375 1033.027344 328.136719 C 1033.027344 365.417969 1082.828125 395.636719 1144.261719 395.636719 C 1205.695312 395.636719 1255.5 365.417969 1255.5 328.136719 C 1255.5 290.859375 1205.695312 260.636719 1144.261719 260.636719 Z M 1144.261719 260.636719 " clip-rule="nonzero"/></clipPath><clipPath id="8a0a4cc220"><path d="M 1328.765625 260.636719 L 1440 260.636719 L 1440 395.636719 L 1328.765625 395.636719 Z M 1328.765625 260.636719 " clip-rule="nonzero"/></clipPath><clipPath id="318aa0ae0e"><path d="M 1440 260.636719 C 1378.566406 260.636719 1328.765625 290.859375 1328.765625 328.136719 C 1328.765625 365.417969 1378.566406 395.636719 1440 395.636719 C 1501.433594 395.636719 1551.234375 365.417969 1551.234375 328.136719 C 1551.234375 290.859375 1501.433594 260.636719 1440 260.636719 Z M 1440 260.636719 " clip-rule="nonzero"/></clipPath></defs><path fill="#ff99c8" d="M 0 250.40625 C 37.914062 250.40625 57.445312 259.980469 75.828125 269.171875 C 93.445312 277.980469 109.914062 286.023438 144 286.023438 C 178.085938 286.023438 194.554688 277.597656 212.171875 269.171875 C 230.9375 259.980469 250.085938 250.40625 288 250.40625 C 325.914062 250.40625 345.445312 259.980469 363.828125 269.171875 C 381.445312 277.980469 397.914062 286.023438 432 286.023438 C 466.085938 286.023438 482.554688 277.597656 500.171875 269.171875 C 518.9375 259.980469 538.085938 250.40625 576 250.40625 C 613.914062 250.40625 633.445312 259.980469 651.828125 269.171875 C 669.445312 277.980469 685.914062 286.023438 720 286.023438 L 720 302.875 C 682.085938 302.875 662.554688 293.300781 644.171875 284.109375 C 626.554688 275.300781 610.085938 267.257812 576 267.257812 C 541.914062 267.257812 525.445312 275.683594 507.828125 284.109375 C 489.0625 293.300781 469.914062 302.875 432 302.875 C 394.085938 302.875 374.554688 293.300781 356.171875 284.109375 C 338.554688 275.300781 322.085938 267.257812 288 267.257812 C 253.914062 267.257812 237.445312 275.683594 219.828125 284.109375 C 201.0625 293.300781 181.914062 302.875 144 302.875 C 106.085938 302.875 86.554688 293.300781 68.171875 284.109375 C 50.554688 275.300781 34.085938 267.257812 0 267.257812 Z M 0 250.40625 " fill-opacity="1" fill-rule="nonzero"/><path fill="#ff99c8" d="M 1440 250.40625 C 1402.085938 250.40625 1382.554688 259.980469 1364.171875 269.171875 C 1346.554688 277.980469 1330.085938 286.023438 1296 286.023438 C 1261.914062 286.023438 1245.445312 277.597656 1227.828125 269.171875 C 1209.0625 259.980469 1189.914062 250.40625 1152 250.40625 C 1114.085938 250.40625 1094.554688 259.980469 1076.171875 269.171875 C 1058.554688 277.980469 1042.085938 286.023438 1008 286.023438 C 973.914062 286.023438 957.445312 277.597656 939.828125 269.171875 C 921.0625 259.980469 901.914062 250.40625 864 250.40625 C 826.085938 250.40625 806.554688 259.980469 788.171875 269.171875 C 770.554688 277.980469 754.085938 286.023438 720 286.023438 L 720 302.875 C 757.914062 302.875 777.445312 293.300781 795.828125 284.109375 C 813.445312 275.300781 829.914062 267.257812 864 267.257812 C 898.085938 267.257812 914.554688 275.683594 932.171875 284.109375 C 950.9375 293.300781 970.085938 302.875 1008 302.875 C 1045.914062 302.875 1065.445312 293.300781 1083.828125 284.109375 C 1101.445312 275.300781 1117.914062 267.257812 1152 267.257812 C 1186.085938 267.257812 1202.554688 275.683594 1220.171875 284.109375 C 1238.9375 293.300781 1258.085938 302.875 1296 302.875 C 1333.914062 302.875 1353.445312 293.300781 1371.828125 284.109375 C 1389.445312 275.300781 1405.914062 267.257812 1440 267.257812 Z M 1440 250.40625 " fill-opacity="1" fill-rule="nonzero"/><g clip-path="url(#f0620511e2)"><path fill="#ff99c8" d="M 0 286.277344 L 1440.238281 286.277344 L 1440.238281 450 L 0 450 Z M 0 286.277344 " fill-opacity="1" fill-rule="nonzero"/></g><g clip-path="url(#591e0f7ce4)"><g clip-path="url(#7340eaea81)"><path fill="#ff99c8" d="M -111.234375 260.636719 L 111.304688 260.636719 L 111.304688 395.636719 L -111.234375 395.636719 Z M -111.234375 260.636719 " fill-opacity="1" fill-rule="nonzero"/></g></g><g clip-path="url(#8ad116eb74)"><g clip-path="url(#b278881730)"><path fill="#ff99c8" d="M 179.898438 260.636719 L 402.4375 260.636719 L 402.4375 395.636719 L 179.898438 395.636719 Z M 179.898438 260.636719 " fill-opacity="1" fill-rule="nonzero"/></g></g><g clip-path="url(#22eebc6d55)"><g clip-path="url(#d9e161ed68)"><path fill="#ff99c8" d="M 471.367188 260.636719 L 693.90625 260.636719 L 693.90625 395.636719 L 471.367188 395.636719 Z M 471.367188 260.636719 " fill-opacity="1" fill-rule="nonzero"/></g></g><g clip-path="url(#9e88599e65)"><g clip-path="url(#334071633e)"><path fill="#ff99c8" d="M 752.058594 260.636719 L 974.597656 260.636719 L 974.597656 395.636719 L 752.058594 395.636719 Z M 752.058594 260.636719 " fill-opacity="1" fill-rule="nonzero"/></g></g><g clip-path="url(#ad56bb5232)"><g clip-path="url(#3330f22355)"><path fill="#ff99c8" d="M 1033.027344 260.636719 L 1255.566406 260.636719 L 1255.566406 395.636719 L 1033.027344 395.636719 Z M 1033.027344 260.636719 " fill-opacity="1" fill-rule="nonzero"/></g></g><g clip-path="url(#8a0a4cc220)"><g clip-path="url(#318aa0ae0e)"><path fill="#ff99c8" d="M 1328.765625 260.636719 L 1551.304688 260.636719 L 1551.304688 395.636719 L 1328.765625 395.636719 Z M 1328.765625 260.636719 " fill-opacity="1" fill-rule="nonzero"/></g></g></svg>