<svg xmlns="http://www.w3.org/2000/svg" xmlns:xlink="http://www.w3.org/1999/xlink" width="1920" zoomAndPan="magnify" viewBox="0 0 1440 149.999998" height="200" preserveAspectRatio="xMidYMid meet" version="1.0"><defs><clipPath id="a0d5bfa934"><path d="M 0 59.277344 L 1440 59.277344 L 1440 150 L 0 150 Z M 0 59.277344 " clip-rule="nonzero"/></clipPath><clipPath id="45bf92457f"><path d="M 0 25.578125 L 128.390625 25.578125 L 128.390625 150 L 0 150 Z M 0 25.578125 " clip-rule="nonzero"/></clipPath><clipPath id="b125e43079"><path d="M 19.703125 25.578125 C -40.285156 25.578125 -88.917969 55.085938 -88.917969 91.488281 C -88.917969 127.890625 -40.285156 157.402344 19.703125 157.402344 C 79.691406 157.402344 128.324219 127.890625 128.324219 91.488281 C 128.324219 55.085938 79.691406 25.578125 19.703125 25.578125 Z M 19.703125 25.578125 " clip-rule="nonzero"/></clipPath><clipPath id="b311ecc468"><path d="M 183.621094 25.578125 L 412.769531 25.578125 L 412.769531 150 L 183.621094 150 Z M 183.621094 25.578125 " clip-rule="nonzero"/></clipPath><clipPath id="ce8fb3cae2"><path d="M 298.113281 25.578125 C 234.882812 25.578125 183.621094 55.085938 183.621094 91.488281 C 183.621094 127.890625 234.882812 157.402344 298.113281 157.402344 C 361.347656 157.402344 412.609375 127.890625 412.609375 91.488281 C 412.609375 55.085938 361.347656 25.578125 298.113281 25.578125 Z M 298.113281 25.578125 " clip-rule="nonzero"/></clipPath><clipPath id="390742cb5a"><path d="M 456.488281 25.578125 L 697.480469 25.578125 L 697.480469 150 L 456.488281 150 Z M 456.488281 25.578125 " clip-rule="nonzero"/></clipPath><clipPath id="77671920c6"><path d="M 576.855469 25.578125 C 510.378906 25.578125 456.488281 55.085938 456.488281 91.488281 C 456.488281 127.890625 510.378906 157.402344 576.855469 157.402344 C 643.335938 157.402344 697.226562 127.890625 697.226562 91.488281 C 697.226562 55.085938 643.335938 25.578125 576.855469 25.578125 Z M 576.855469 25.578125 " clip-rule="nonzero"/></clipPath><clipPath id="48f2a68ea2"><path d="M 754.074219 25.578125 L 971.378906 25.578125 L 971.378906 150 L 754.074219 150 Z M 754.074219 25.578125 " clip-rule="nonzero"/></clipPath><clipPath id="7782dde373"><path d="M 862.695312 25.578125 C 802.703125 25.578125 754.074219 55.085938 754.074219 91.488281 C 754.074219 127.890625 802.703125 157.402344 862.695312 157.402344 C 922.683594 157.402344 971.3125 127.890625 971.3125 91.488281 C 971.3125 55.085938 922.683594 25.578125 862.695312 25.578125 Z M 862.695312 25.578125 " clip-rule="nonzero"/></clipPath><clipPath id="8a4ffa25d4"><path d="M 1028.4375 25.578125 L 1260.160156 25.578125 L 1260.160156 150 L 1028.4375 150 Z M 1028.4375 25.578125 " clip-rule="nonzero"/></clipPath><clipPath id="9aa9a18fcf"><path d="M 1144.238281 25.578125 C 1080.28125 25.578125 1028.4375 55.085938 1028.4375 91.488281 C 1028.4375 127.890625 1080.28125 157.402344 1144.238281 157.402344 C 1208.191406 157.402344 1260.039062 127.890625 1260.039062 91.488281 C 1260.039062 55.085938 1208.191406 25.578125 1144.238281 25.578125 Z M 1144.238281 25.578125 " clip-rule="nonzero"/></clipPath><clipPath id="d52a2783e7"><path d="M 1317.21875 25.578125 L 1440 25.578125 L 1440 150 L 1317.21875 150 Z M 1317.21875 25.578125 " clip-rule="nonzero"/></clipPath><clipPath id="3394ce40de"><path d="M 1425.839844 25.578125 C 1365.851562 25.578125 1317.21875 55.085938 1317.21875 91.488281 C 1317.21875 127.890625 1365.851562 157.402344 1425.839844 157.402344 C 1485.828125 157.402344 1534.457031 127.890625 1534.457031 91.488281 C 1534.457031 55.085938 1485.828125 25.578125 1425.839844 25.578125 Z M 1425.839844 25.578125 " clip-rule="nonzero"/></clipPath></defs><path fill="#a9def9" d="M 0 15.601562 C 37.914062 15.601562 57.445312 25.175781 75.828125 34.367188 C 93.445312 43.175781 109.914062 51.21875 144 51.21875 C 178.085938 51.21875 194.554688 42.792969 212.171875 34.367188 C 230.9375 25.175781 250.085938 15.601562 288 15.601562 C 325.914062 15.601562 345.445312 25.175781 363.828125 34.367188 C 381.445312 43.175781 397.914062 51.21875 432 51.21875 C 466.085938 51.21875 482.554688 42.792969 500.171875 34.367188 C 518.9375 25.175781 538.085938 15.601562 576 15.601562 C 613.914062 15.601562 633.445312 25.175781 651.828125 34.367188 C 669.445312 43.175781 685.914062 51.21875 720 51.21875 L 720 68.070312 C 682.085938 68.070312 662.554688 58.496094 644.171875 49.304688 C 626.554688 40.496094 610.085938 32.453125 576 32.453125 C 541.914062 32.453125 525.445312 40.878906 507.828125 49.304688 C 489.0625 58.496094 469.914062 68.070312 432 68.070312 C 394.085938 68.070312 374.554688 58.496094 356.171875 49.304688 C 338.554688 40.496094 322.085938 32.453125 288 32.453125 C 253.914062 32.453125 237.445312 40.878906 219.828125 49.304688 C 201.0625 58.496094 181.914062 68.070312 144 68.070312 C 106.085938 68.070312 86.554688 58.496094 68.171875 49.304688 C 50.554688 40.496094 34.085938 32.453125 0 32.453125 Z M 0 15.601562 " fill-opacity="1" fill-rule="nonzero"/><path fill="#a9def9" d="M 1440 15.601562 C 1402.085938 15.601562 1382.554688 25.175781 1364.171875 34.367188 C 1346.554688 43.175781 1330.085938 51.21875 1296 51.21875 C 1261.914062 51.21875 1245.445312 42.792969 1227.828125 34.367188 C 1209.0625 25.175781 1189.914062 15.601562 1152 15.601562 C 1114.085938 15.601562 1094.554688 25.175781 1076.171875 34.367188 C 1058.554688 43.175781 1042.085938 51.21875 1008 51.21875 C 973.914062 51.21875 957.445312 42.792969 939.828125 34.367188 C 921.0625 25.175781 901.914062 15.601562 864 15.601562 C 826.085938 15.601562 806.554688 25.175781 788.171875 34.367188 C 770.554688 43.175781 754.085938 51.21875 720 51.21875 L 720 68.070312 C 757.914062 68.070312 777.445312 58.496094 795.828125 49.304688 C 813.445312 40.496094 829.914062 32.453125 864 32.453125 C 898.085938 32.453125 914.554688 40.878906 932.171875 49.304688 C 950.9375 58.496094 970.085938 68.070312 1008 68.070312 C 1045.914062 68.070312 1065.445312 58.496094 1083.828125 49.304688 C 1101.445312 40.496094 1117.914062 32.453125 1152 32.453125 C 1186.085938 32.453125 1202.554688 40.878906 1220.171875 49.304688 C 1238.9375 58.496094 1258.085938 68.070312 1296 68.070312 C 1333.914062 68.070312 1353.445312 58.496094 1371.828125 49.304688 C 1389.445312 40.496094 1405.914062 32.453125 1440 32.453125 Z M 1440 15.601562 " fill-opacity="1" fill-rule="nonzero"/><g clip-path="url(#a0d5bfa934)"><path fill="#a9def9" d="M 0 59.277344 L 1439.953125 59.277344 L 1439.953125 181.949219 L 0 181.949219 Z M 0 59.277344 " fill-opacity="1" fill-rule="nonzero"/></g><g clip-path="url(#45bf92457f)"><g clip-path="url(#b125e43079)"><path fill="#a9def9" d="M -88.917969 25.578125 L 128.390625 25.578125 L 128.390625 157.402344 L -88.917969 157.402344 Z M -88.917969 25.578125 " fill-opacity="1" fill-rule="nonzero"/></g></g><g clip-path="url(#b311ecc468)"><g clip-path="url(#ce8fb3cae2)"><path fill="#a9def9" d="M 183.621094 25.578125 L 412.769531 25.578125 L 412.769531 157.402344 L 183.621094 157.402344 Z M 183.621094 25.578125 " fill-opacity="1" fill-rule="nonzero"/></g></g><g clip-path="url(#390742cb5a)"><g clip-path="url(#77671920c6)"><path fill="#a9def9" d="M 456.488281 25.578125 L 697.480469 25.578125 L 697.480469 157.402344 L 456.488281 157.402344 Z M 456.488281 25.578125 " fill-opacity="1" fill-rule="nonzero"/></g></g><g clip-path="url(#48f2a68ea2)"><g clip-path="url(#7782dde373)"><path fill="#a9def9" d="M 754.074219 25.578125 L 971.378906 25.578125 L 971.378906 157.402344 L 754.074219 157.402344 Z M 754.074219 25.578125 " fill-opacity="1" fill-rule="nonzero"/></g></g><g clip-path="url(#8a4ffa25d4)"><g clip-path="url(#9aa9a18fcf)"><path fill="#a9def9" d="M 1028.4375 25.578125 L 1260.160156 25.578125 L 1260.160156 157.402344 L 1028.4375 157.402344 Z M 1028.4375 25.578125 " fill-opacity="1" fill-rule="nonzero"/></g></g><g clip-path="url(#d52a2783e7)"><g clip-path="url(#3394ce40de)"><path fill="#a9def9" d="M 1317.21875 25.578125 L 1534.523438 25.578125 L 1534.523438 157.402344 L 1317.21875 157.402344 Z M 1317.21875 25.578125 " fill-opacity="1" fill-rule="nonzero"/></g></g></svg>