<svg xmlns="http://www.w3.org/2000/svg" xmlns:xlink="http://www.w3.org/1999/xlink" width="682" zoomAndPan="magnify" viewBox="0 0 511.5 460.499986" height="614" preserveAspectRatio="xMidYMid meet" version="1.0"><defs><clipPath id="c40f9d36ec"><path d="M 46.027344 4 L 464.824219 4 L 464.824219 459 L 46.027344 459 Z M 46.027344 4 " clip-rule="nonzero"/></clipPath><clipPath id="12d11d748d"><path d="M 46.027344 3 L 464.824219 3 L 464.824219 459.691406 L 46.027344 459.691406 Z M 46.027344 3 " clip-rule="nonzero"/></clipPath></defs><g clip-path="url(#c40f9d36ec)"><path fill="#6633ff" d="M 302.601562 197.914062 L 282.304688 197.914062 C 279.910156 197.914062 277.957031 199.863281 277.957031 202.261719 L 277.957031 203.714844 C 277.957031 204.886719 278.421875 205.992188 279.261719 206.816406 L 280.527344 208.058594 L 252.332031 208.058594 L 251.394531 205.320312 C 250.078125 201.46875 248.824219 197.792969 248.03125 195.449219 L 247.832031 194.851562 L 248.394531 194.570312 C 253.265625 192.121094 257.207031 189.738281 259.796875 187.675781 C 257.808594 184.386719 256.007812 181.460938 254.28125 178.734375 L 253.582031 177.621094 L 302.601562 177.621094 Z M 237.058594 367.859375 L 238.148438 367.761719 L 237.816406 368.804688 C 235.542969 375.878906 232.683594 382.921875 230.160156 389.132812 L 229.84375 389.910156 C 228.394531 393.496094 227.019531 396.886719 225.863281 400.035156 C 225.039062 402.304688 224.226562 405.621094 223.578125 409.378906 L 222.148438 409.382812 C 220.058594 397.9375 217.679688 386.726562 215.070312 376.058594 L 214.996094 375.773438 L 215.148438 375.515625 C 215.878906 374.28125 216.609375 373.039062 217.335938 371.796875 L 218.941406 369.0625 L 219.332031 369.046875 C 225.828125 368.730469 231.625 368.339844 237.058594 367.859375 Z M 203.226562 406.113281 C 201.539062 405.0625 200.140625 404.207031 199.402344 403.773438 L 198.859375 403.453125 L 199.101562 402.875 C 199.613281 401.640625 200.214844 400.355469 200.933594 398.925781 L 201.730469 397.347656 L 202.273438 399.03125 C 202.867188 400.878906 203.476562 402.738281 204.078125 404.605469 L 204.917969 407.167969 Z M 464.21875 242.125 L 433.058594 242.078125 L 433.058594 215.3125 C 433.058594 211.3125 429.808594 208.0625 425.808594 208.0625 L 381.191406 208.0625 L 382.453125 206.820312 C 383.300781 205.980469 383.773438 204.878906 383.773438 203.714844 L 383.773438 202.265625 C 383.773438 199.863281 381.820312 197.914062 379.425781 197.914062 L 359.132812 197.914062 L 359.132812 177.621094 L 425.808594 177.621094 C 429.804688 177.621094 433.058594 174.371094 433.058594 170.371094 L 433.058594 54.414062 C 433.058594 50.414062 429.804688 47.164062 425.808594 47.164062 L 237.371094 47.164062 C 233.375 47.164062 230.125 50.414062 230.125 54.414062 L 230.125 146.410156 L 230.117188 148.050781 L 228.902344 146.941406 C 228.578125 146.644531 228.25 146.34375 227.921875 146.0625 C 217.386719 136.910156 204.121094 131.910156 188.492188 131.195312 L 187.394531 131.148438 C 184.730469 131.042969 181.71875 130.929688 179.605469 129.316406 L 179.128906 129.308594 L 179.128906 128.910156 C 178.160156 127.90625 178.058594 126.496094 178.085938 125.347656 L 178.101562 124.78125 L 178.652344 124.65625 C 180.207031 124.3125 181.6875 123.882812 183.167969 123.335938 C 187.351562 121.765625 191.21875 118.859375 194.347656 114.945312 C 197.136719 111.433594 199.175781 106.925781 200.25 101.90625 C 201.128906 97.769531 201.742188 94.046875 202.121094 90.527344 C 202.984375 82.71875 202.722656 75.753906 201.351562 69.828125 L 201.136719 68.890625 C 200.609375 66.5625 199.953125 63.664062 199.105469 60.964844 L 198.957031 60.480469 L 199.359375 60.167969 C 201.6875 58.390625 202.667969 56.183594 202.273438 53.605469 C 201.46875 48.3125 197.296875 43.957031 193.75 40.757812 C 190.03125 37.402344 185.699219 35.132812 179.265625 33.1875 C 173.472656 31.433594 168.46875 30.585938 163.960938 30.585938 C 161.328125 30.585938 158.855469 30.886719 156.605469 31.5 L 156.371094 31.714844 L 156.078125 31.714844 L 155.933594 31.726562 L 155.351562 31.726562 L 155.199219 31.203125 C 153.472656 25.308594 151.210938 18.605469 146.25 13.671875 C 140.554688 8.007812 132.992188 4.628906 126.023438 4.628906 C 122.226562 4.628906 118.703125 5.609375 115.546875 7.539062 C 112.816406 9.246094 110.6875 11.523438 109.1875 14.351562 C 104.820312 21.011719 103.992188 29.441406 106.914062 37.480469 C 109.691406 45.101562 115.492188 50.699219 121.691406 51.738281 C 121.910156 51.78125 122.117188 51.804688 122.332031 51.820312 L 123.921875 51.90625 L 122.816406 53.046875 C 121.75 54.140625 120.785156 55.257812 119.941406 56.371094 C 114.910156 62.976562 112.84375 70.433594 114.121094 77.371094 C 114.347656 78.597656 114.695312 79.867188 115.175781 81.242188 C 115.953125 83.402344 116.996094 85.511719 118.28125 87.5 L 118.320312 87.574219 L 118.351562 87.648438 C 118.460938 87.953125 118.570312 88.246094 118.695312 88.535156 C 121.847656 95.761719 127.351562 102.347656 134.613281 107.582031 L 135.460938 108.179688 L 135.515625 108.242188 C 137.703125 110.671875 140.347656 113.125 143.359375 115.535156 C 143.945312 116.007812 144.539062 116.476562 145.21875 116.992188 C 145.253906 117.007812 145.289062 117.027344 145.296875 117.035156 C 147.960938 118.0625 146.707031 123.882812 146.554688 124.542969 C 145.820312 127.707031 143.566406 129.753906 139.851562 130.636719 L 138.542969 130.945312 C 135.761719 131.566406 133.261719 132.160156 130.851562 133.097656 C 126.066406 134.992188 121.570312 137.621094 117.488281 140.914062 C 110.777344 146.367188 106.09375 153.570312 102.03125 160.546875 C 96.691406 169.726562 93.578125 178.851562 92.78125 187.675781 C 93.25 188.046875 93.777344 188.429688 94.316406 188.816406 L 94.644531 189.046875 L 93.960938 200.582031 L 92.234375 200.773438 C 82.703125 201.828125 72.847656 202.914062 69.136719 211.058594 C 67.507812 214.046875 67.238281 240.9375 67.238281 240.9375 L 46.761719 241.648438 L 46.761719 248.898438 C 50.136719 248.898438 53.511719 248.898438 56.910156 248.910156 L 68.4375 248.910156 L 68.480469 249.585938 C 70.515625 279.789062 75.367188 320.09375 77.90625 339.085938 C 79.242188 345.085938 81.09375 352.921875 83.507812 360.355469 C 84.949219 364.785156 87.464844 367.304688 91.664062 368.523438 L 92.335938 368.722656 L 92.160156 369.402344 C 85.269531 396.132812 80.003906 425.386719 76.074219 458.828125 L 83.164062 458.828125 C 90.707031 438.015625 98.273438 414.589844 105.628906 391.828125 C 107.886719 384.796875 110.105469 377.957031 112.28125 371.285156 L 112.457031 370.746094 L 113.019531 370.785156 C 121.335938 371.351562 130.199219 371.625 140.109375 371.625 C 141.402344 371.625 142.703125 371.621094 144 371.609375 L 144.933594 371.601562 L 144.707031 372.511719 C 139.894531 391.644531 136.113281 411.816406 133.140625 434.183594 L 140.234375 434.183594 C 147.839844 415.898438 155.480469 395.203125 162.863281 375.183594 C 163.3125 373.984375 163.746094 372.8125 164.183594 371.609375 L 164.351562 371.144531 L 164.84375 371.132812 C 166.308594 371.089844 167.761719 371.035156 169.226562 370.976562 L 170.449219 370.933594 L 170.097656 371.9375 C 168.023438 377.910156 165.609375 383.871094 163.476562 389.128906 L 162.925781 390.503906 C 161.566406 393.875 160.277344 397.058594 159.195312 400.039062 C 157.128906 405.625 155.878906 415.773438 155.878906 418.75 C 155.878906 423.671875 156.066406 430.5625 156.066406 430.5625 L 156.445312 432.011719 C 156.445312 432.011719 158.308594 434.472656 158.894531 435.128906 L 165.902344 435.128906 C 176.871094 435.042969 191.171875 434.804688 203.71875 434.589844 C 205.792969 434.574219 213.925781 434.484375 213.925781 434.484375 L 214.097656 434.984375 C 217.203125 444.183594 219.921875 451.984375 222.394531 458.824219 L 229.488281 458.824219 C 228.5625 450.96875 227.515625 443.007812 226.378906 435.15625 L 226.265625 434.375 L 227.050781 434.328125 C 227.300781 434.3125 227.515625 434.3125 227.660156 434.3125 C 227.839844 434.3125 228.042969 434.269531 228.257812 434.222656 L 228.472656 434.183594 L 285.464844 434.183594 L 288.175781 434.214844 C 291.417969 434.257812 293.636719 434.285156 294.335938 434.285156 C 294.472656 434.285156 294.59375 434.269531 294.804688 434.242188 C 294.984375 434.230469 295.160156 434.199219 295.394531 434.128906 C 295.457031 434.113281 295.511719 434.097656 295.570312 434.070312 L 295.597656 434.042969 L 295.78125 433.980469 C 295.832031 433.957031 295.90625 433.917969 296.03125 433.84375 C 296.292969 433.707031 296.519531 433.535156 296.691406 433.328125 C 296.773438 433.234375 296.855469 433.144531 296.925781 433.042969 C 296.992188 432.9375 298.105469 431.675781 298.105469 431.675781 C 298.144531 431.5 298.105469 430.878906 298.105469 430.878906 C 297.921875 428.828125 295.433594 424.324219 285.644531 416.796875 C 284.78125 416.125 283.546875 415.269531 281.882812 414.179688 L 281.613281 414.003906 L 281.5625 413.6875 C 279.929688 403.855469 278.082031 394.285156 276.074219 385.246094 L 276.011719 384.949219 L 276.171875 384.699219 C 277.542969 382.566406 279.09375 380.144531 280.496094 377.761719 L 283.929688 372 C 290.640625 360.757812 298.242188 348.023438 302.398438 336.648438 L 302.4375 336.53125 C 304.476562 330.503906 306.90625 321.335938 306.90625 311.890625 C 306.90625 297.570312 301.515625 286.589844 290.882812 279.261719 C 280.515625 272.101562 266.578125 270.378906 253.007812 268.699219 L 248.238281 268.089844 C 244.359375 267.59375 237.3125 266.410156 234.929688 266 L 234.457031 265.917969 L 234.347656 265.460938 C 234.066406 264.304688 233.566406 262.835938 232.855469 261.09375 C 231.234375 257.046875 228.972656 252.632812 228.457031 251.671875 L 228.378906 251.425781 L 228.0625 249.082031 L 233.847656 249.082031 L 234.050781 249.261719 C 238.210938 252.890625 244.714844 254.804688 252.851562 254.804688 C 262.765625 254.804688 274.898438 252.914062 288.902344 249.179688 L 288.996094 249.152344 L 314.476562 249.183594 C 357.53125 249.242188 400.574219 249.300781 443.621094 249.34375 L 464.222656 249.375 L 464.21875 242.125 " fill-opacity="1" fill-rule="nonzero"/></g><path fill="#ff99ff" d="M 331.472656 173.140625 C 330.226562 173.140625 329.210938 172.128906 329.210938 170.882812 C 329.210938 169.636719 330.226562 168.621094 331.472656 168.621094 C 332.71875 168.621094 333.71875 169.636719 333.71875 170.882812 C 333.71875 172.128906 332.71875 173.140625 331.472656 173.140625 Z M 331.472656 167.167969 C 329.429688 167.167969 327.761719 168.839844 327.761719 170.882812 C 327.761719 172.925781 329.429688 174.589844 331.472656 174.589844 C 333.515625 174.589844 335.167969 172.925781 335.167969 170.882812 C 335.167969 168.839844 333.515625 167.167969 331.472656 167.167969 " fill-opacity="1" fill-rule="nonzero"/><path fill="#ff99ff" d="M 228.480469 241.480469 L 228.332031 240.871094 C 228.335938 240.902344 228.328125 240.933594 228.335938 240.964844 C 228.375 241.144531 228.4375 241.308594 228.480469 241.480469 " fill-opacity="1" fill-rule="nonzero"/><path fill="#ff99ff" d="M 243.890625 75.429688 L 258.386719 75.429688 L 258.386719 149.355469 L 243.890625 149.355469 Z M 242.445312 74.703125 L 242.445312 150.082031 C 242.445312 150.488281 242.765625 150.804688 243.167969 150.804688 L 259.113281 150.804688 C 259.5 150.804688 259.835938 150.488281 259.835938 150.082031 L 259.835938 74.703125 C 259.835938 74.296875 259.5 73.980469 259.113281 73.980469 L 243.167969 73.980469 C 242.765625 73.980469 242.445312 74.296875 242.445312 74.703125 " fill-opacity="1" fill-rule="nonzero"/><path fill="#ff99ff" d="M 419.285156 105.871094 L 391.742188 105.871094 L 391.742188 76.878906 L 419.285156 76.878906 Z M 420.734375 75.429688 L 390.292969 75.429688 L 390.292969 107.320312 L 420.734375 107.320312 L 420.734375 75.429688 " fill-opacity="1" fill-rule="nonzero"/><path fill="#ff99ff" d="M 391.742188 113.117188 L 419.285156 113.117188 L 419.285156 142.109375 L 391.742188 142.109375 Z M 391.019531 143.558594 L 420.011719 143.558594 C 420.398438 143.558594 420.734375 143.238281 420.734375 142.835938 L 420.734375 112.394531 C 420.734375 111.988281 420.398438 111.667969 420.011719 111.667969 L 391.019531 111.667969 C 390.613281 111.667969 390.292969 111.988281 390.292969 112.394531 L 390.292969 142.835938 C 390.292969 143.238281 390.613281 143.558594 391.019531 143.558594 " fill-opacity="1" fill-rule="nonzero"/><path fill="#ff99ff" d="M 393.1875 85.574219 L 400.4375 85.574219 L 400.4375 92.824219 L 393.1875 92.824219 L 393.1875 85.574219 " fill-opacity="1" fill-rule="nonzero"/><path fill="#ff99ff" d="M 403.339844 87.027344 L 407.6875 87.027344 L 407.6875 91.375 L 403.339844 91.375 Z M 401.890625 92.824219 L 409.140625 92.824219 L 409.140625 85.574219 L 401.890625 85.574219 L 401.890625 92.824219 " fill-opacity="1" fill-rule="nonzero"/><path fill="#ff99ff" d="M 394.644531 95.722656 L 398.992188 95.722656 L 398.992188 100.070312 L 394.644531 100.070312 Z M 393.191406 101.519531 L 400.4375 101.519531 L 400.4375 94.273438 L 393.191406 94.273438 L 393.191406 101.519531 " fill-opacity="1" fill-rule="nonzero"/><path fill="#ff99ff" d="M 410.582031 85.574219 L 417.828125 85.574219 L 417.828125 92.824219 L 410.582031 92.824219 L 410.582031 85.574219 " fill-opacity="1" fill-rule="nonzero"/><path fill="#ff99ff" d="M 401.882812 94.273438 L 409.132812 94.273438 L 409.132812 101.519531 L 401.882812 101.519531 L 401.882812 94.273438 " fill-opacity="1" fill-rule="nonzero"/><path fill="#ff99ff" d="M 393.1875 81.230469 L 417.828125 81.230469 L 417.828125 82.679688 L 393.1875 82.679688 L 393.1875 81.230469 " fill-opacity="1" fill-rule="nonzero"/><g clip-path="url(#12d11d748d)"><path fill="#ff99ff" d="M 463.496094 248.648438 L 462.421875 248.648438 C 460.726562 248.648438 459.027344 248.648438 457.320312 248.632812 C 451.101562 248.632812 444.882812 248.621094 438.664062 248.621094 C 394.730469 248.558594 350.78125 248.5 306.847656 248.445312 C 302.640625 248.445312 298.453125 248.445312 294.253906 248.429688 C 302.84375 245.933594 309.441406 243.527344 311.746094 242.660156 C 311.75 242.660156 311.75 242.65625 311.75 242.65625 C 313.171875 242.660156 314.589844 242.660156 316.007812 242.664062 C 320.359375 242.667969 324.710938 242.675781 329.066406 242.679688 C 328.886719 242.675781 328.710938 242.671875 328.527344 242.667969 C 328.707031 242.671875 328.886719 242.675781 329.070312 242.675781 C 329.242188 242.6875 329.402344 242.675781 329.574219 242.675781 C 367.972656 242.730469 406.371094 242.773438 444.769531 242.820312 C 450.015625 242.835938 455.277344 242.835938 460.539062 242.847656 L 463.496094 242.847656 Z M 327.769531 242.648438 L 327.320312 242.636719 C 325.542969 242.605469 322.085938 242.546875 318.941406 242.488281 C 322.085938 242.542969 325.539062 242.601562 327.3125 242.632812 Z M 252.851562 254.082031 C 240.195312 254.082031 232.082031 249.472656 229.890625 241.125 L 229.527344 239.628906 L 221.210938 205.191406 C 228.425781 203.875 238.707031 200.101562 247.402344 195.871094 C 247.402344 195.886719 247.402344 195.886719 247.417969 195.898438 C 249.804688 202.914062 256.023438 221.121094 256.023438 221.121094 C 256.128906 221.425781 256.386719 221.585938 256.722656 221.613281 L 309.597656 220.859375 C 309.757812 220.859375 309.917969 220.804688 310.046875 220.699219 C 311.339844 219.65625 315.035156 216.90625 316.730469 216.746094 C 318.441406 216.570312 320.441406 216.28125 321.714844 216.074219 L 320.253906 219.601562 C 320.136719 219.886719 320.210938 220.222656 320.457031 220.425781 C 320.691406 220.628906 321.035156 220.65625 321.300781 220.5 L 328.253906 216.238281 C 329.125 216.3125 332.488281 216.890625 332.445312 221.296875 C 332.445312 221.515625 332.542969 221.71875 332.703125 221.859375 C 332.835938 221.964844 335.90625 224.515625 334.199219 227.777344 C 334.039062 228.050781 334.109375 228.414062 334.328125 228.632812 C 334.414062 228.714844 336.503906 230.820312 334.824219 235.039062 C 334.746094 235.226562 334.746094 235.441406 334.835938 235.617188 C 335.488281 236.964844 335.53125 237.789062 335.023438 238.894531 C 333.863281 241.386719 330.71875 241.28125 328.183594 241.210938 L 327.339844 241.183594 C 323.601562 241.125 312.382812 240.921875 312.382812 240.921875 C 312.28125 240.921875 312.191406 240.9375 312.109375 240.964844 C 311.773438 241.09375 278.609375 254.082031 252.851562 254.082031 Z M 228.703125 248.355469 L 228.597656 247.675781 L 228.078125 243.761719 C 228.4375 243.71875 228.816406 243.675781 229.179688 243.617188 C 229.195312 243.617188 229.195312 243.632812 229.195312 243.632812 C 229.90625 245.386719 230.878906 246.976562 232.109375 248.355469 Z M 233.746094 266.070312 L 233.847656 266.550781 L 234.328125 266.636719 C 234.425781 266.648438 243.445312 268.214844 248.140625 268.824219 C 249.71875 269.027344 251.3125 269.214844 252.921875 269.417969 C 266.347656 271.070312 280.234375 272.796875 290.480469 279.855469 C 293.496094 281.941406 295.960938 284.257812 298.003906 286.742188 C 293.582031 291.640625 288.148438 295.667969 282.613281 299.175781 C 279.085938 301.410156 275.042969 303.785156 270.8125 305.148438 C 269.609375 304.265625 268.011719 303.554688 265.941406 302.945312 C 265.480469 302.8125 265.011719 302.699219 264.550781 302.566406 C 259.765625 301.21875 254.910156 300.089844 250.125 298.726562 C 239.777344 295.8125 226.210938 292.042969 220.210938 282.230469 C 216.570312 276.75 215.292969 270.199219 214.757812 263.386719 C 214.597656 261.488281 214.511719 259.558594 214.4375 257.632812 C 214.367188 255.835938 214.324219 254.050781 214.265625 252.269531 L 227.949219 252.269531 C 228.886719 254.097656 232.859375 261.925781 233.746094 266.070312 Z M 301.84375 335.992188 C 301.816406 336.097656 301.773438 336.183594 301.757812 336.285156 C 301.757812 336.285156 301.746094 336.285156 301.746094 336.300781 C 301.699219 336.429688 301.640625 336.558594 301.597656 336.691406 C 297.4375 347.984375 289.886719 360.625 283.207031 371.800781 C 282.058594 373.726562 280.941406 375.59375 279.871094 377.40625 C 278.753906 379.292969 277.554688 381.207031 276.316406 383.105469 C 274.40625 374.640625 272.320312 366.480469 270.042969 358.566406 C 272.742188 354.871094 273.824219 349.464844 274.1875 341.054688 C 274.304688 338.230469 274.347656 335.066406 274.335938 331.519531 C 274.304688 325.71875 274.539062 319.890625 274.363281 314.09375 C 274.320312 313.007812 274.230469 312.023438 274.105469 311.121094 C 273.785156 309.050781 273.144531 307.484375 272.027344 306.238281 C 275.753906 304.90625 279.304688 302.875 282.496094 300.949219 C 288.410156 297.394531 294.253906 293.03125 298.90625 287.902344 C 310.179688 302.929688 306.007812 323.628906 301.84375 335.992188 Z M 268.164062 347.386719 C 267.484375 348.140625 266.8125 348.894531 265.757812 350.070312 C 265.199219 347.484375 266.019531 346.835938 268.164062 347.386719 Z M 257.8125 364.039062 C 258.179688 362.484375 258.375 361.65625 258.550781 360.914062 C 259.164062 360.964844 259.359375 360.921875 259.410156 360.996094 C 260.160156 362.082031 260.167969 362.992188 257.8125 364.039062 Z M 283.796875 433.460938 L 278.015625 433.460938 C 270.476562 415.316406 262.910156 394.789062 255.589844 374.945312 C 254.546875 372.144531 253.53125 369.390625 252.515625 366.652344 C 260.519531 365.101562 265.664062 363.347656 268.929688 359.910156 C 275.246094 382.132812 280.144531 406.371094 283.796875 433.460938 Z M 226.644531 432.011719 C 226.570312 431.535156 226.5 431.039062 226.425781 430.5625 L 275.261719 430.5625 C 275.464844 431.039062 275.667969 431.535156 275.855469 432.011719 Z M 228.675781 458.101562 L 222.902344 458.101562 C 215.425781 437.390625 207.898438 414.109375 200.625 391.601562 C 198.320312 384.4375 196.074219 377.496094 193.855469 370.710938 C 200.160156 370.496094 206.492188 370.304688 212.816406 370.054688 C 219.582031 396.414062 224.804688 425.398438 228.675781 458.101562 Z M 201.582031 399.253906 C 202.25 401.324219 202.929688 403.410156 203.609375 405.5 C 201.914062 404.445312 200.507812 403.585938 199.769531 403.152344 C 200.320312 401.832031 200.929688 400.542969 201.582031 399.253906 Z M 206.304688 421.863281 L 187.476562 421.863281 C 185.175781 421.863281 183.519531 418.777344 182.59375 417.066406 C 181.433594 414.953125 180.390625 412.847656 178.535156 411.226562 C 175.289062 408.414062 170.867188 408.09375 166.804688 407.425781 C 163.9375 406.949219 161.109375 406.515625 158.210938 406.3125 C 158.675781 404.109375 159.242188 401.992188 159.863281 400.269531 C 161.097656 396.902344 162.585938 393.265625 164.152344 389.398438 C 166.460938 383.699219 168.894531 377.679688 170.96875 371.621094 C 174.835938 371.480469 178.691406 371.304688 182.519531 371.132812 C 185.78125 370.984375 189.058594 370.871094 192.347656 370.753906 C 194.609375 377.667969 196.898438 384.742188 199.246094 392.046875 C 199.8125 393.800781 200.378906 395.554688 200.957031 397.308594 C 199.929688 399.234375 198.984375 401.195312 198.1875 403.179688 C 198.058594 403.515625 198.1875 403.902344 198.496094 404.078125 C 198.539062 404.105469 200.957031 405.53125 203.871094 407.398438 C 204.101562 407.6875 204.304688 407.992188 204.519531 408.308594 C 205.4375 411.109375 206.351562 413.917969 207.261719 416.703125 C 207.582031 418.792969 208.148438 421.863281 206.304688 421.863281 Z M 171.414062 419.667969 C 173.441406 418.460938 173.882812 419.628906 174.410156 420.613281 C 174.277344 420.863281 174.140625 421.113281 174.011719 421.363281 C 173.261719 420.875 172.511719 420.386719 171.414062 419.667969 Z M 174.054688 425.992188 C 173.300781 425.65625 172.710938 425.390625 172.0625 425.097656 C 172.535156 423.367188 173.378906 423.269531 174.738281 423.875 C 174.511719 424.570312 174.320312 425.160156 174.054688 425.992188 Z M 167.597656 345.59375 C 169.886719 344.898438 172.179688 344.207031 174.472656 343.511719 C 172.640625 346.058594 170.160156 345.988281 167.597656 345.59375 Z M 174.84375 250.589844 C 174.316406 251.972656 173.789062 253.355469 173.164062 254.992188 C 172.261719 254.683594 171.59375 254.460938 170.328125 254.03125 C 171.6875 252.339844 172.71875 251.058594 173.746094 249.773438 C 174.113281 250.046875 174.480469 250.320312 174.84375 250.589844 Z M 179.457031 243.308594 C 177.464844 243.144531 177.214844 242.097656 177.550781 240.207031 C 178.445312 240.421875 179.117188 240.582031 180.066406 240.808594 C 179.839844 241.75 179.660156 242.480469 179.457031 243.308594 Z M 180.644531 318.847656 C 181.054688 319.820312 181.46875 320.796875 181.882812 321.773438 C 181.527344 321.921875 181.171875 322.070312 180.816406 322.21875 C 180.457031 321.234375 180.09375 320.25 179.734375 319.261719 C 180.039062 319.125 180.339844 318.984375 180.644531 318.847656 Z M 191.421875 365.890625 C 191.238281 366.292969 191.128906 366.785156 190.84375 367.078125 C 190.613281 367.320312 190.175781 367.332031 189.828125 367.445312 C 189.628906 367.1875 189.425781 366.929688 189.226562 366.675781 C 189.765625 366.21875 190.3125 365.765625 190.851562 365.3125 C 191.039062 365.507812 191.234375 365.699219 191.421875 365.890625 Z M 199.097656 300 C 200.371094 298.820312 201.117188 298.128906 202.03125 297.285156 C 203.257812 299.328125 202.726562 300.574219 201.203125 302.578125 C 200.527344 301.753906 199.980469 301.078125 199.097656 300 Z M 200.414062 319.449219 C 201.203125 320.027344 201.992188 320.605469 203.085938 321.402344 C 202.515625 322.078125 202.1875 322.472656 201.550781 323.222656 C 200.769531 321.886719 200.269531 321.027344 199.773438 320.171875 C 199.984375 319.933594 200.199219 319.691406 200.414062 319.449219 Z M 213.902344 245.007812 C 218.164062 244.835938 222.414062 244.515625 226.640625 243.964844 L 227.570312 250.824219 L 214.222656 250.824219 C 214.152344 248.851562 214.046875 246.90625 213.902344 245.007812 Z M 243.609375 417.078125 C 242.414062 416.125 242.414062 416.125 243.277344 414.746094 C 243.378906 415.460938 243.480469 416.175781 243.609375 417.078125 Z M 248.101562 429.195312 C 247.132812 429.542969 246.429688 429.800781 245.097656 430.277344 C 245.703125 428.925781 246.054688 428.140625 246.550781 427.035156 C 247.179688 427.90625 247.535156 428.402344 248.101562 429.195312 Z M 272.339844 425.15625 C 271.203125 426.230469 270.542969 425.90625 269.933594 424.507812 C 271.300781 423.890625 271.300781 423.890625 272.339844 425.15625 Z M 238.6875 368.449219 C 242.226562 368.117188 245.746094 367.738281 249.199219 367.261719 C 249.851562 367.160156 250.472656 367.046875 251.082031 366.925781 C 252.113281 369.738281 253.15625 372.566406 254.230469 375.453125 C 259.96875 391.003906 265.855469 406.949219 271.769531 421.863281 L 254.15625 421.863281 C 251.835938 421.863281 250.199219 418.777344 249.269531 417.066406 C 248.109375 414.953125 247.066406 412.847656 245.199219 411.226562 C 241.964844 408.398438 237.53125 408.09375 233.488281 407.425781 C 230.617188 406.949219 227.789062 406.515625 224.890625 406.3125 C 225.351562 404.09375 225.917969 401.976562 226.542969 400.269531 C 227.773438 396.902344 229.269531 393.265625 230.832031 389.398438 C 233.542969 382.695312 236.425781 375.566406 238.6875 368.449219 Z M 238.296875 312.167969 C 238.738281 310.671875 238.941406 309.980469 239.207031 309.085938 C 240.613281 310.925781 240.613281 310.925781 238.296875 312.167969 Z M 239.199219 307.492188 C 238.707031 306.984375 238.210938 306.480469 237.714844 305.972656 C 238.050781 305.644531 238.386719 305.316406 238.714844 304.988281 C 239.113281 305.605469 239.515625 306.226562 239.914062 306.847656 C 239.675781 307.058594 239.433594 307.277344 239.199219 307.492188 Z M 232.964844 361 C 233.203125 361.292969 233.441406 361.582031 233.679688 361.867188 C 232.574219 362.878906 231.476562 363.890625 230.371094 364.90625 C 230.1875 364.640625 230.003906 364.378906 229.816406 364.117188 C 230.867188 363.078125 231.914062 362.039062 232.964844 361 Z M 234.144531 335.667969 C 234.164062 335.664062 234.183594 335.664062 234.207031 335.664062 C 234.097656 334.96875 233.984375 334.269531 233.878906 333.574219 C 234.09375 333.472656 234.308594 333.371094 234.523438 333.265625 C 234.972656 333.882812 235.421875 334.496094 236.152344 335.492188 C 235.179688 335.582031 234.683594 335.625 234.207031 335.664062 C 234.210938 335.6875 234.214844 335.707031 234.21875 335.730469 L 234.214844 335.730469 C 234.183594 335.738281 234.15625 335.742188 234.128906 335.753906 C 234.003906 336.441406 233.875 337.140625 233.699219 338.101562 C 232.191406 336.417969 233.058594 336.039062 234.128906 335.753906 C 234.132812 335.726562 234.136719 335.699219 234.140625 335.667969 L 234.210938 335.722656 Z M 218.445312 351.554688 C 218.847656 351.046875 219.246094 350.535156 219.644531 350.027344 C 219.828125 350.144531 220.011719 350.265625 220.195312 350.382812 C 219.867188 351.019531 219.539062 351.65625 219.207031 352.292969 C 218.960938 352.050781 218.703125 351.800781 218.445312 351.554688 Z M 219.367188 369.769531 C 221.695312 369.65625 224.011719 369.519531 226.320312 369.375 C 226.042969 368.746094 225.664062 367.902344 225.007812 366.441406 C 227.035156 366.871094 228.273438 367.128906 229.652344 367.425781 C 230.675781 366.765625 231.792969 366.042969 233.296875 365.078125 C 233.09375 366.503906 232.945312 367.546875 232.8125 368.488281 C 231.195312 368.757812 229.738281 369.007812 228.15625 369.273438 C 231.167969 369.074219 234.15625 368.847656 237.121094 368.582031 C 234.902344 375.480469 232.121094 382.371094 229.484375 388.863281 C 227.917969 392.730469 226.425781 396.398438 225.179688 399.792969 C 224.238281 402.386719 223.441406 405.90625 222.859375 409.257812 C 220.742188 397.664062 218.378906 386.554688 215.773438 375.886719 C 216.972656 373.859375 218.164062 371.8125 219.367188 369.769531 Z M 214.472656 317.019531 C 214.472656 316.402344 214.472656 315.78125 214.472656 315.160156 C 214.710938 315.132812 214.945312 315.105469 215.175781 315.074219 C 215.285156 315.699219 215.394531 316.328125 215.503906 316.957031 C 215.160156 316.976562 214.816406 317 214.472656 317.019531 Z M 217.644531 369.855469 C 216.84375 371.203125 216.0625 372.539062 215.277344 373.871094 C 214.957031 372.582031 214.628906 371.277344 214.308594 370 C 215.410156 369.957031 216.523438 369.898438 217.644531 369.855469 Z M 104.191406 198.464844 C 104.578125 195.117188 105.042969 191.722656 105.625 188.347656 C 105.695312 187.957031 105.421875 187.582031 105.03125 187.503906 C 104.636719 187.449219 104.261719 187.707031 104.191406 188.101562 C 103.902344 189.855469 103.625 191.609375 103.378906 193.359375 C 99.320312 191.273438 95.941406 189.203125 93.550781 187.347656 C 94.394531 178.753906 97.453125 169.851562 102.667969 160.90625 C 106.699219 153.992188 111.335938 146.847656 117.945312 141.484375 C 121.960938 138.238281 126.382812 135.644531 131.121094 133.773438 C 133.558594 132.816406 136.167969 132.222656 138.703125 131.640625 L 140.023438 131.339844 C 141.066406 131.089844 141.992188 130.757812 142.832031 130.324219 C 142.871094 130.355469 142.902344 130.394531 142.949219 130.417969 C 143.054688 130.476562 150.039062 133.921875 160.398438 133.921875 C 165.910156 133.921875 172.378906 132.933594 179.273438 129.953125 C 179.277344 129.953125 179.277344 129.949219 179.277344 129.949219 C 181.582031 131.640625 184.683594 131.773438 187.453125 131.875 L 188.453125 131.917969 C 203.902344 132.628906 217.039062 137.570312 227.457031 146.613281 C 240.285156 157.75 250.375 173.503906 258.839844 187.492188 C 250.390625 193.957031 231.183594 202.132812 220.167969 203.914062 C 219.773438 203.972656 219.5 204.351562 219.558594 204.742188 C 219.585938 204.839844 219.613281 204.929688 219.671875 205.015625 L 228.34375 240.863281 L 228.484375 241.488281 L 228.601562 241.996094 C 228.617188 242.050781 228.644531 242.097656 228.675781 242.140625 C 228.683594 242.160156 228.6875 242.183594 228.695312 242.203125 C 228.6875 242.183594 228.679688 242.160156 228.667969 242.140625 C 228.679688 242.167969 228.683594 242.199219 228.691406 242.226562 C 228.691406 242.226562 228.691406 242.226562 228.6875 242.226562 C 223.761719 242.980469 218.773438 243.371094 213.789062 243.574219 C 213.6875 242.601562 213.585938 241.632812 213.457031 240.675781 C 212.484375 231.007812 212.890625 210.121094 209.019531 202.390625 C 203.222656 191.769531 192.191406 193.015625 180.597656 193.320312 C 152.414062 194.074219 129.355469 195.128906 104.191406 198.464844 Z M 162.199219 357.800781 C 161.082031 358.292969 160.640625 358.480469 159.929688 358.792969 C 159.929688 357.90625 159.929688 357.269531 159.929688 356.039062 C 160.835938 356.738281 161.289062 357.09375 162.199219 357.800781 Z M 158.496094 333.582031 C 160.925781 332.609375 162.542969 332.960938 164.101562 335.667969 C 162.046875 334.902344 160.496094 334.328125 158.496094 333.582031 Z M 153.480469 245.074219 C 154.304688 245.804688 155.019531 246.4375 156.257812 247.535156 C 155.402344 248.574219 155.003906 249.0625 154.621094 249.53125 C 152.511719 248.261719 151.726562 247.191406 153.480469 245.074219 Z M 153.527344 280.824219 C 153.71875 282.523438 153.71875 282.523438 152.109375 282.050781 C 152.535156 281.683594 152.964844 281.3125 153.527344 280.824219 Z M 162.183594 374.929688 C 154.863281 394.785156 147.285156 415.3125 139.746094 433.460938 L 133.960938 433.460938 C 136.945312 411.328125 140.757812 391.089844 145.511719 372.320312 C 151.457031 372.261719 157.382812 372.117188 163.300781 371.914062 C 162.921875 372.929688 162.558594 373.914062 162.183594 374.929688 Z M 134.472656 330.03125 C 134.273438 329.273438 134.074219 328.519531 133.878906 327.757812 C 134.105469 327.675781 134.332031 327.589844 134.5625 327.503906 C 134.847656 328.238281 135.128906 328.976562 135.410156 329.714844 C 135.09375 329.820312 134.78125 329.925781 134.472656 330.03125 Z M 125.640625 326.03125 C 125.605469 325.792969 125.574219 325.546875 125.539062 325.304688 C 126.179688 325.140625 126.820312 324.976562 127.460938 324.808594 C 127.535156 325.175781 127.609375 325.539062 127.6875 325.90625 C 127.003906 325.949219 126.320312 325.992188 125.640625 326.03125 Z M 125.082031 355.171875 C 124.136719 354.917969 123.179688 354.660156 122.234375 354.40625 C 122.339844 354 122.453125 353.589844 122.566406 353.183594 C 123.496094 353.535156 124.425781 353.890625 125.355469 354.242188 C 125.265625 354.554688 125.175781 354.863281 125.082031 355.171875 Z M 118.304688 364.421875 C 119.339844 364.023438 119.996094 363.769531 121.109375 363.34375 C 120.558594 365.519531 119.707031 365.15625 118.304688 364.421875 Z M 117.378906 330.800781 C 119.175781 330.152344 119.691406 330.804688 119.332031 332.773438 C 117.652344 333.175781 117.054688 332.621094 117.378906 330.800781 Z M 109.921875 256.183594 C 111.441406 254.171875 112.722656 255.382812 114.90625 255.84375 C 112.371094 257.160156 112.371094 257.160156 109.921875 256.183594 Z M 110.117188 334.125 C 110.117188 332.605469 110.117188 331.253906 110.117188 329.644531 C 112.773438 331.730469 112.769531 331.832031 110.117188 334.125 Z M 104.925781 391.601562 C 97.664062 414.109375 90.144531 437.390625 82.664062 458.101562 L 76.894531 458.101562 C 80.777344 425.195312 86.042969 396.050781 92.867188 369.566406 C 96.054688 370.25 99.652344 370.335938 103.359375 370.710938 C 106.058594 370.972656 108.769531 371.203125 111.480469 371.390625 C 109.347656 377.960938 107.175781 384.683594 104.925781 391.601562 Z M 101.8125 224.722656 C 101.8125 226.238281 101.8125 227.0625 101.8125 227.90625 C 101.3125 227.90625 100.988281 228.015625 100.828125 227.886719 C 99.511719 226.835938 99.789062 225.980469 101.8125 224.722656 Z M 103.578125 368.761719 C 103.578125 369.386719 103.578125 370.019531 103.578125 370.726562 C 103.507812 370.722656 103.4375 370.714844 103.371094 370.707031 C 103.144531 370.6875 102.921875 370.667969 102.699219 370.648438 C 102.429688 370.136719 102.71875 369.777344 103.578125 368.761719 Z M 102.695312 198.667969 C 101.609375 198.828125 100.523438 198.972656 99.417969 199.117188 C 97.894531 199.378906 96.332031 199.582031 94.738281 199.769531 L 95.304688 190.363281 C 97.492188 191.828125 100.160156 193.351562 103.175781 194.886719 C 103 196.144531 102.839844 197.410156 102.695312 198.667969 Z M 96.117188 315.742188 C 95.085938 317.425781 94.226562 317.132812 93.046875 315.878906 C 94.128906 314.75 94.964844 314.488281 96.117188 315.742188 Z M 142.628906 129.4375 C 142.800781 129.089844 143.253906 128.949219 143.601562 129.117188 C 143.605469 129.125 143.671875 129.15625 143.726562 129.1875 C 143.671875 129.15625 143.609375 129.128906 143.601562 129.125 C 143.246094 128.949219 142.808594 129.085938 142.628906 129.445312 C 142.570312 129.554688 142.558594 129.675781 142.5625 129.792969 C 142.558594 129.675781 142.570312 129.554688 142.628906 129.4375 Z M 178.3125 128.90625 L 178.292969 129.851562 C 178.292969 129.851562 177.894531 129.765625 177.515625 129.648438 C 177.890625 129.765625 178.285156 129.84375 178.285156 129.84375 Z M 176.265625 104.972656 C 177.914062 106.5625 177.914062 106.5625 177.042969 108.453125 C 174.785156 107.601562 174.78125 107.570312 176.265625 104.972656 Z M 147.253906 124.714844 C 147.515625 123.539062 148.675781 117.769531 145.6875 116.4375 C 143.90625 115.089844 142.253906 113.726562 140.730469 112.375 C 145.992188 115.304688 151.75 117.292969 157.847656 116.929688 C 164.992188 116.496094 176.710938 112.898438 182.054688 106.519531 C 183.609375 104.679688 184.246094 102.476562 184.417969 101.972656 L 184.40625 101.972656 C 184.433594 101.855469 184.449219 101.726562 184.40625 101.59375 C 184.289062 101.289062 183.9375 101.113281 183.636719 101.230469 C 182.097656 101.769531 179.96875 101.582031 178.78125 100.796875 C 176.578125 99.34375 175.375 96.1875 175.867188 93.113281 C 176.300781 90.429688 177.824219 88.546875 180.070312 87.9375 C 181.285156 87.898438 182.851562 87.332031 184.316406 86.5625 C 185.769531 85.808594 187.128906 84.851562 187.953125 84.042969 C 192.957031 79.195312 194.59375 69.066406 193.507812 63.691406 C 194.070312 63.628906 194.652344 63.425781 195.214844 63.136719 C 196.363281 62.734375 197.492188 62.222656 198.539062 61.601562 C 199.289062 64.054688 199.882812 66.644531 200.433594 69.050781 L 200.652344 69.996094 C 202 75.835938 202.246094 82.71875 201.40625 90.449219 C 201.015625 94.027344 200.40625 97.726562 199.539062 101.753906 C 198.476562 106.679688 196.496094 111.074219 193.78125 114.480469 C 190.738281 118.308594 186.984375 121.121094 182.910156 122.65625 C 178.796875 124.207031 175.054688 124.757812 171.136719 124.4375 C 170.71875 124.394531 170.386719 124.699219 170.339844 125.09375 C 170.3125 125.5 170.617188 125.84375 171.011719 125.875 C 171.777344 125.945312 172.53125 125.976562 173.285156 125.976562 L 173.402344 125.976562 C 174.023438 126.945312 175.226562 128.351562 176.546875 129.179688 C 176.648438 129.25 176.761719 129.308594 176.878906 129.367188 C 176.949219 129.410156 177.011719 129.453125 177.082031 129.480469 C 177.171875 129.527344 177.277344 129.566406 177.390625 129.605469 C 177.277344 129.566406 177.171875 129.527344 177.085938 129.484375 C 177.015625 129.453125 176.949219 129.40625 176.875 129.367188 C 161.808594 135.175781 149.179688 131.351562 145.046875 129.742188 C 144.726562 129.617188 144.457031 129.507812 144.242188 129.414062 C 144.121094 129.363281 144.046875 129.332031 143.964844 129.292969 C 144.046875 129.328125 144.121094 129.363281 144.238281 129.410156 C 145.773438 128.234375 146.804688 126.667969 147.253906 124.714844 Z M 160.304688 38.070312 C 160.449219 39.601562 160.539062 40.5625 160.691406 42.160156 C 159.496094 41.386719 158.855469 40.972656 157.957031 40.386719 C 158.75 39.609375 159.308594 39.054688 160.304688 38.070312 Z M 178.195312 66.007812 C 176.375 68.667969 175.164062 69.003906 173.097656 67.421875 C 174.996094 64.800781 176.234375 64.457031 178.195312 66.007812 Z M 187.324219 55.632812 C 187.070312 55.957031 186.3125 55.824219 185.78125 55.898438 C 185.617188 55.671875 185.449219 55.445312 185.28125 55.21875 C 185.722656 54.371094 186.160156 53.523438 186.738281 52.410156 C 187.957031 53.6875 188.042969 54.707031 187.324219 55.632812 Z M 190.578125 39.105469 C 194.4375 41.902344 197.941406 45.554688 200.230469 49.757812 C 202.316406 53.585938 201.699219 56.773438 199.347656 59.082031 C 199.914062 58.109375 200.292969 57.121094 200.347656 56.253906 C 200.582031 51.265625 196.25 45.992188 193.261719 42.570312 C 190.535156 39.4375 186.824219 36.945312 182.691406 35.03125 C 185.476562 36.058594 188.144531 37.351562 190.578125 39.105469 Z M 180.070312 129.226562 C 180.046875 129.375 179.996094 129.515625 179.890625 129.628906 C 180 129.515625 180.046875 129.375 180.070312 129.226562 Z M 180.027344 128.832031 C 180.066406 128.917969 180.082031 129.015625 180.085938 129.105469 C 180.082031 129.015625 180.066406 128.921875 180.027344 128.835938 C 180.007812 128.792969 179.972656 128.761719 179.949219 128.726562 C 179.976562 128.757812 180.007812 128.789062 180.027344 128.832031 Z M 277.15625 68.183594 L 420.734375 68.183594 C 421.125 68.183594 421.460938 67.863281 421.460938 67.457031 C 421.460938 67.054688 421.125 66.734375 420.734375 66.734375 L 243.890625 66.734375 C 243.488281 66.734375 243.167969 67.054688 243.167969 67.457031 C 243.167969 67.863281 243.488281 68.183594 243.890625 68.183594 L 275.753906 68.183594 C 274.347656 79.488281 288.277344 89.214844 297.234375 92.882812 C 311.105469 98.566406 326.660156 97.300781 339.59375 105.679688 C 345.898438 109.769531 350.78125 115.796875 353.027344 122.988281 C 354.648438 128.164062 354.246094 133.726562 357.910156 138.136719 C 361.433594 142.367188 366.566406 144.253906 371.453125 146.457031 C 378.207031 149.515625 383.019531 154.890625 383.304688 162.402344 L 243.90625 162.402344 C 242.050781 159.953125 240.109375 157.5625 238.09375 155.253906 L 238.09375 58.835938 C 238.09375 56.90625 239.253906 56.589844 242.777344 56.589844 L 421.820312 56.589844 C 424.664062 56.589844 425.082031 56.730469 425.082031 58.835938 L 425.082031 162.402344 L 384.742188 162.402344 C 384.585938 157.28125 382.613281 152.9375 378.785156 149.414062 C 374.320312 145.324219 368.214844 143.949219 363.15625 140.820312 C 357.867188 137.554688 356.230469 132.46875 355.300781 126.640625 C 354.300781 120.421875 351.53125 115 347.332031 110.332031 C 338.054688 100.015625 324.714844 97.78125 311.800781 95.320312 C 304.0625 93.828125 296.453125 91.792969 289.839844 87.359375 C 284.132812 83.519531 276.113281 75.894531 277.171875 68.371094 C 277.171875 68.296875 277.15625 68.238281 277.15625 68.183594 Z M 230.847656 54.414062 C 230.847656 50.816406 233.777344 47.886719 237.371094 47.886719 L 425.804688 47.886719 C 429.402344 47.886719 432.332031 50.816406 432.332031 54.414062 L 432.332031 170.371094 C 432.332031 173.96875 429.402344 176.898438 425.804688 176.898438 L 253.964844 176.898438 C 251.167969 172.519531 248.183594 168.113281 245.011719 163.851562 L 425.804688 163.851562 C 426.199219 163.851562 426.53125 163.53125 426.53125 163.128906 L 426.53125 58.835938 C 426.53125 55.136719 424.34375 55.136719 421.820312 55.136719 L 242.777344 55.136719 C 240.183594 55.136719 236.644531 55.136719 236.644531 58.835938 L 236.644531 153.644531 C 234.777344 151.585938 232.847656 149.585938 230.847656 147.71875 Z M 379.421875 198.640625 C 381.410156 198.640625 383.046875 200.261719 383.046875 202.265625 L 383.046875 203.714844 C 383.046875 205.714844 381.410156 207.335938 379.421875 207.335938 L 334.371094 207.335938 C 336.3125 204.425781 338.230469 201.480469 340.070312 198.640625 Z M 323.511719 215.527344 C 325.847656 211.988281 328.242188 208.46875 330.589844 205.015625 C 334.125 199.828125 337.792969 194.464844 341.183594 189.058594 C 341.546875 188.492188 342.066406 188.378906 342.429688 188.40625 C 343.039062 188.433594 343.660156 188.785156 343.894531 189.246094 C 344.054688 189.550781 344.023438 189.855469 343.792969 190.191406 L 342.210938 192.652344 C 337.691406 199.667969 332.355469 207.945312 327.296875 215.117188 L 322.457031 218.089844 Z M 326.28125 208.785156 C 324.992188 210.667969 323.734375 212.582031 322.457031 214.496094 C 321.585938 214.640625 318.832031 215.074219 316.585938 215.292969 C 314.355469 215.527344 310.351562 218.601562 309.324219 219.410156 L 257.226562 220.164062 C 256.707031 218.640625 255.097656 213.902344 253.34375 208.785156 Z M 333.171875 198.640625 C 331.90625 200.507812 330.648438 202.378906 329.386719 204.203125 C 328.691406 205.246094 327.964844 206.292969 327.253906 207.335938 L 282.304688 207.335938 C 280.304688 207.335938 278.683594 205.714844 278.683594 203.714844 L 278.683594 202.261719 C 278.683594 200.261719 280.304688 198.636719 282.304688 198.636719 L 333.171875 198.636719 Z M 260.417969 187.300781 C 258.648438 184.375 256.808594 181.375 254.894531 178.347656 L 301.875 178.347656 L 301.875 197.1875 L 282.304688 197.1875 C 279.507812 197.1875 277.234375 199.464844 277.234375 202.261719 L 277.234375 203.714844 C 277.234375 205.132812 277.8125 206.40625 278.753906 207.335938 L 252.851562 207.335938 C 251.273438 202.710938 249.664062 198.015625 248.71875 195.21875 C 253.359375 192.882812 257.476562 190.449219 260.246094 188.246094 C 260.535156 188.015625 260.605469 187.609375 260.417969 187.300781 Z M 425.804688 208.785156 C 429.402344 208.785156 432.332031 211.710938 432.332031 215.308594 L 432.332031 241.355469 C 414.109375 241.34375 395.890625 241.3125 377.667969 241.28125 C 363.4375 241.269531 349.214844 241.253906 334.980469 241.238281 C 335.515625 240.792969 335.992188 240.238281 336.328125 239.5 C 337.097656 237.875 336.878906 236.617188 336.285156 235.28125 C 337.71875 231.367188 336.386719 228.917969 335.691406 227.992188 C 337.011719 224.933594 335.242188 222.207031 333.894531 220.960938 C 333.78125 216.613281 330.851562 215.320312 329.199219 214.949219 C 330.589844 212.945312 331.996094 210.871094 333.402344 208.785156 Z M 75.78125 300.9375 C 75.03125 301.828125 74.550781 302.398438 73.449219 303.710938 C 73.1875 301.585938 73.023438 300.25 72.796875 298.417969 C 76.9375 299.457031 78.628906 302.414062 80.140625 305.628906 C 78.699219 304.082031 77.257812 302.527344 75.78125 300.9375 Z M 67.375 243.226562 C 67.464844 244.847656 67.558594 246.5 67.660156 248.183594 C 63.285156 248.183594 58.90625 248.183594 54.511719 248.171875 L 47.484375 248.171875 L 47.484375 242.398438 C 47.484375 242.386719 47.484375 242.386719 47.484375 242.371094 L 53.570312 242.371094 C 58.152344 242.386719 62.730469 242.386719 67.320312 242.386719 C 67.296875 241.902344 67.269531 241.417969 67.242188 240.941406 C 67.355469 240.929688 67.464844 240.917969 67.570312 240.914062 C 67.707031 241.636719 67.835938 242.359375 67.992188 243.226562 C 67.722656 243.226562 67.535156 243.226562 67.375 243.226562 Z M 130.097656 13.878906 C 130.167969 13.710938 130.238281 13.539062 130.3125 13.375 C 130.726562 13.472656 131.21875 13.457031 131.539062 13.710938 C 131.761719 13.890625 131.757812 14.417969 132.066406 15.609375 C 131.011719 14.683594 130.554688 14.28125 130.097656 13.878906 Z M 124.582031 43.1875 C 125.78125 42.339844 126.660156 42.914062 128.011719 43.855469 C 126.304688 44.953125 125.304688 45.078125 124.582031 43.1875 Z M 107.332031 36.527344 C 105.839844 32.40625 105.492188 28.101562 106.175781 24.015625 C 106.148438 29.320312 107.769531 34.769531 110.464844 39.207031 C 113.222656 43.800781 117.453125 47.992188 122.324219 51.09375 C 115.230469 50.222656 109.886719 43.542969 107.332031 36.527344 Z M 121.417969 37.320312 C 121.730469 38.410156 121.902344 39.019531 122.164062 39.945312 C 121.378906 39.828125 120.9375 39.761719 120.496094 39.695312 C 120.261719 39.378906 120.035156 39.058594 119.804688 38.738281 C 120.214844 38.375 120.628906 38.015625 121.417969 37.320312 Z M 115.839844 80.632812 C 115.550781 79.804688 115.277344 78.964844 115.042969 78.125 C 114.582031 76.460938 114.390625 74.792969 114.390625 73.109375 C 114.390625 71.023438 114.710938 68.953125 115.289062 66.9375 C 116.40625 63.050781 118.464844 59.382812 121.003906 56.207031 C 117.175781 63.734375 114.871094 72.386719 115.839844 80.632812 Z M 119.535156 86.1875 C 119.21875 85.761719 118.902344 85.328125 118.585938 84.902344 C 118.875 84.722656 119.164062 84.535156 119.457031 84.355469 C 119.683594 84.824219 119.902344 85.292969 120.128906 85.765625 C 119.929688 85.902344 119.730469 86.046875 119.535156 86.1875 Z M 464.21875 241.398438 L 433.78125 241.355469 L 433.78125 215.308594 C 433.78125 210.914062 430.199219 207.335938 425.804688 207.335938 L 382.960938 207.335938 C 383.902344 206.40625 384.496094 205.132812 384.496094 203.714844 L 384.496094 202.261719 C 384.496094 199.464844 382.21875 197.1875 379.421875 197.1875 L 359.855469 197.1875 L 359.855469 178.347656 L 425.804688 178.347656 C 430.199219 178.347656 433.78125 174.765625 433.78125 170.371094 L 433.78125 54.414062 C 433.78125 50.019531 430.199219 46.441406 425.804688 46.441406 L 237.371094 46.441406 C 232.976562 46.441406 229.398438 50.019531 229.398438 54.414062 L 229.398438 146.410156 C 229.066406 146.109375 228.730469 145.804688 228.398438 145.515625 C 217.726562 136.253906 204.308594 131.195312 188.519531 130.46875 L 187.492188 130.425781 C 184.839844 130.320312 181.808594 130.222656 179.867188 128.597656 C 179.878906 128.613281 179.878906 128.613281 179.878906 128.628906 C 179.886719 128.628906 179.886719 128.636719 179.886719 128.640625 C 179.839844 128.589844 179.78125 128.550781 179.71875 128.511719 C 179.726562 128.519531 179.742188 128.515625 179.753906 128.527344 C 179.78125 128.527344 179.808594 128.542969 179.824219 128.570312 C 178.941406 127.816406 178.78125 126.625 178.808594 125.367188 C 180.320312 125.03125 181.839844 124.597656 183.417969 124.015625 C 187.738281 122.394531 191.710938 119.40625 194.914062 115.394531 C 197.773438 111.800781 199.859375 107.203125 200.957031 102.058594 C 201.832031 97.96875 202.453125 94.230469 202.84375 90.605469 C 203.714844 82.71875 203.453125 75.675781 202.0625 69.660156 L 201.84375 68.734375 C 201.265625 66.167969 200.628906 63.382812 199.796875 60.746094 C 202.015625 59.050781 203.480469 56.703125 202.988281 53.5 C 202.175781 48.152344 198.101562 43.714844 194.234375 40.222656 C 189.898438 36.308594 185.027344 34.175781 179.480469 32.496094 C 172.246094 30.308594 163.867188 28.800781 156.429688 30.785156 C 156.285156 30.832031 156.183594 30.902344 156.09375 30.992188 C 156.023438 30.992188 155.964844 31.003906 155.890625 31.003906 C 153.9375 24.320312 151.617188 17.988281 146.761719 13.160156 C 138.90625 5.347656 125.828125 0.40625 115.160156 6.925781 C 112.175781 8.796875 110.03125 11.214844 108.582031 13.957031 C 104.085938 20.8125 103.261719 29.554688 106.234375 37.730469 C 108.828125 44.847656 114.480469 51.265625 121.570312 52.457031 C 121.8125 52.5 122.046875 52.53125 122.292969 52.542969 C 121.25 53.617188 120.265625 54.75 119.363281 55.9375 C 114.683594 62.082031 111.984375 69.777344 113.410156 77.503906 C 113.65625 78.835938 114.03125 80.171875 114.496094 81.488281 C 115.292969 83.707031 116.363281 85.867188 117.671875 87.898438 C 117.785156 88.21875 117.902344 88.519531 118.035156 88.824219 C 121.4375 96.636719 127.339844 103.230469 134.195312 108.175781 C 134.441406 108.351562 134.714844 108.539062 134.976562 108.726562 C 137.222656 111.21875 139.863281 113.667969 142.90625 116.105469 C 143.542969 116.613281 144.179688 117.117188 144.847656 117.609375 C 144.878906 117.640625 144.90625 117.640625 144.949219 117.671875 C 144.976562 117.683594 144.992188 117.699219 145.035156 117.714844 C 146.730469 118.363281 146.3125 122.367188 145.847656 124.378906 C 145.179688 127.265625 143.109375 129.121094 139.6875 129.933594 L 138.382812 130.234375 C 135.804688 130.816406 133.121094 131.4375 130.585938 132.425781 C 125.714844 134.355469 121.164062 137.019531 117.03125 140.355469 C 110.25 145.863281 105.507812 153.140625 101.40625 160.183594 C 96.011719 169.445312 92.867188 178.679688 92.070312 187.609375 C 92.039062 187.855469 92.144531 188.089844 92.328125 188.246094 C 92.808594 188.625 93.34375 189.015625 93.894531 189.40625 L 93.273438 199.929688 C 83.140625 201.0625 72.5 201.914062 68.5 210.714844 C 66.617188 214.164062 66.472656 225.789062 67.238281 240.9375 C 60.410156 240.9375 53.585938 240.921875 46.761719 240.921875 C 46.355469 240.921875 46.035156 241.253906 46.035156 241.644531 L 46.035156 248.894531 C 46.035156 249.285156 46.355469 249.621094 46.761719 249.621094 C 50.136719 249.621094 53.511719 249.621094 56.90625 249.632812 L 56.90625 434.910156 L 58.355469 434.910156 L 58.355469 249.632812 L 67.761719 249.632812 C 69.847656 280.683594 74.808594 321.355469 77.199219 339.242188 C 78.792969 346.375 80.558594 353.621094 82.820312 360.582031 C 84.53125 365.839844 87.621094 368.101562 91.460938 369.21875 C 84.5625 395.980469 79.273438 425.445312 75.355469 458.742188 L 75.257812 459.550781 L 83.679688 459.550781 L 83.847656 459.074219 C 91.402344 438.214844 98.984375 414.75 106.320312 392.046875 C 108.578125 385.019531 110.796875 378.175781 112.972656 371.507812 C 123.234375 372.203125 133.625 372.40625 144.003906 372.335938 C 139.234375 391.292969 135.394531 411.71875 132.421875 434.085938 L 132.308594 434.910156 L 140.714844 434.910156 L 140.90625 434.464844 C 148.515625 416.167969 156.15625 395.46875 163.546875 375.433594 C 163.992188 374.234375 164.429688 373.0625 164.867188 371.859375 C 166.386719 371.8125 167.894531 371.753906 169.417969 371.699219 C 167.386719 377.539062 165.039062 383.351562 162.808594 388.859375 C 161.242188 392.742188 159.75 396.394531 158.519531 399.789062 C 156.457031 405.355469 155.15625 415.484375 155.15625 418.746094 C 155.15625 424.414062 155.546875 428.097656 156.066406 430.5625 L 211.84375 430.5625 C 212.003906 431.042969 212.179688 431.535156 212.339844 432.011719 L 156.445312 432.011719 C 157.15625 434.375 157.996094 435.214844 158.574219 435.851562 L 165.910156 435.851562 C 177.085938 435.765625 191.882812 435.519531 203.726562 435.316406 C 207.164062 435.285156 210.421875 435.242188 213.410156 435.214844 C 216.179688 443.40625 218.945312 451.421875 221.714844 459.074219 L 221.890625 459.550781 L 230.3125 459.550781 L 230.207031 458.742188 C 229.253906 450.625 228.207031 442.734375 227.09375 435.054688 C 227.324219 435.039062 227.527344 435.039062 227.660156 435.039062 C 227.960938 435.039062 228.25 434.96875 228.542969 434.910156 L 285.453125 434.910156 C 290.160156 434.96875 293.449219 435.011719 294.335938 435.011719 C 296.179688 435.011719 297.945312 433.90625 298.105469 431.675781 C 297.976562 431.882812 297.773438 432.011719 297.527344 432.011719 L 285.0625 432.011719 C 284.988281 431.535156 284.929688 431.039062 284.859375 430.5625 L 297.527344 430.5625 C 297.773438 430.5625 297.976562 430.691406 298.105469 430.878906 C 297.828125 427.792969 294.8125 422.9375 286.089844 416.226562 C 285.117188 415.472656 283.78125 414.558594 282.277344 413.570312 C 280.640625 403.703125 278.8125 394.21875 276.785156 385.089844 C 278.261719 382.785156 279.753906 380.449219 281.117188 378.128906 C 282.1875 376.335938 283.304688 374.464844 284.449219 372.539062 C 291.234375 361.171875 298.929688 348.300781 303.121094 336.777344 L 303.121094 336.761719 C 305.351562 330.164062 307.628906 321.179688 307.628906 311.890625 C 307.628906 299.871094 303.84375 287.320312 291.292969 278.667969 C 280.753906 271.386719 266.691406 269.664062 253.097656 267.980469 C 251.503906 267.777344 249.90625 267.578125 248.328125 267.371094 C 244.285156 266.851562 236.980469 265.621094 235.050781 265.285156 C 234.734375 263.984375 234.179688 262.429688 233.53125 260.820312 C 231.832031 256.589844 229.5 252.082031 229.09375 251.328125 L 229.082031 251.195312 L 228.890625 249.804688 L 233.574219 249.804688 C 237.863281 253.546875 244.402344 255.53125 252.851562 255.53125 C 264.664062 255.53125 278 252.832031 289.089844 249.878906 C 297.539062 249.894531 306.003906 249.894531 314.472656 249.90625 C 357.519531 249.964844 400.570312 250.023438 443.621094 250.066406 C 446.625 250.066406 449.625 250.082031 452.625 250.082031 L 452.625 434.910156 L 454.074219 434.910156 L 454.074219 250.082031 C 457.453125 250.082031 460.832031 250.097656 464.21875 250.097656 C 464.609375 250.097656 464.945312 249.761719 464.945312 249.375 L 464.945312 242.125 C 464.945312 241.734375 464.609375 241.398438 464.21875 241.398438 " fill-opacity="1" fill-rule="nonzero"/></g></svg>